<svg xmlns="http://www.w3.org/2000/svg" width="213.063" height="178.061" viewBox="0 0 213.063 178.061"><defs><style>.a{fill:#efeff7;opacity:0.456;}.b,.c,.d,.e{fill:#2d2d52;}.b{stroke:#f0f0f7;stroke-width:0.5px;}.d{opacity:0.1;}.e{stroke:#2d2d52;}</style></defs><g transform="translate(-841.108 -285.539)"><path class="a" d="M50.916-15.823c61.286,0,118.93,55.364,118.93,113.57S5.692,179.862-31.541,133.579-10.37-15.823,50.916-15.823Z" transform="translate(884.324 301.361)"/><path class="b" d="M14254.867,6623.074h-54.518a12.365,12.365,0,0,1-12.351-12.352v-86.117a12.363,12.363,0,0,1,12.351-12.348h102.293a12.364,12.364,0,0,1,12.352,12.348v6.539l-.021.034c-.037.062-.074.124-.113.186-.7,1.143-1.567,2.2-3.127,2.2a4.431,4.431,0,0,1-1.334-.227,4.146,4.146,0,0,1-2.849-2.143v-6.589a4.912,4.912,0,0,0-4.908-4.9H14200.35a4.912,4.912,0,0,0-4.908,4.9v17h50.175a4.728,4.728,0,0,1,2.614,1.529,3.91,3.91,0,0,1,.5,3.343c-.471,2.142-2.067,2.34-3.35,2.5-.2.025-.369.046-.53.072h-49.4v61.673a4.914,4.914,0,0,0,4.908,4.908h54.592a3.78,3.78,0,0,1,1.945,1.406,4.638,4.638,0,0,1,.463,2.67c.1,1.7-1.395,2.664-2.481,3.367Zm-17.024-88.451a3.747,3.747,0,1,1,3.745-3.749A3.753,3.753,0,0,1,14237.843,6534.624Zm-15.923,0a3.747,3.747,0,1,1,3.745-3.749A3.753,3.753,0,0,1,14221.92,6534.624Zm-15.236,0a3.747,3.747,0,1,1,3.749-3.749A3.751,3.751,0,0,1,14206.684,6534.624Z" transform="translate(-13312 -6179.516)"/><path class="c" d="M44.239,0A44.215,44.215,0,0,1,77.82,73.007l4.657,4.657a10.226,10.226,0,0,1,11.618,1.992l12.02,12.02s3.191,6.28-1.694,11.453-11.384,4.344-13.692,2.037L79.657,94.095a10.225,10.225,0,0,1-1.992-11.618l-4.657-4.657A44.23,44.23,0,1,1,44.239,0Zm40.23,89.282,8.567,8.567s3.092,3.759,5.981.794-1.169-5.607-1.169-5.607l-8.567-8.567a3.4,3.4,0,0,0-4.813,4.813Zm-40.23-7.609A37.433,37.433,0,1,0,6.806,44.239,37.476,37.476,0,0,0,44.239,81.673Z" transform="translate(936.02 356.628)"/><path class="d" d="M6.358,6.938s-4.213,30.127,17.4,42.116,42.361,1.554,42.361,1.554S62.479,64.367,49.789,71.46c-13.019,7.278-35.5,7.562-48.728-5.366C-24.622,40.991,6.358,6.938,6.358,6.938Z" transform="translate(950.389 361.962)"/><path class="e" d="M11.725,0a1.406,1.406,0,0,1-1.05-.437,1.5,1.5,0,0,1-.425-1.087v-11.75l.525.125L5.95-7.175,5.825-7.5H14.3a1.357,1.357,0,0,1,1,.4,1.357,1.357,0,0,1,.4,1,1.286,1.286,0,0,1-.4.962,1.38,1.38,0,0,1-1,.388H3.75a1.529,1.529,0,0,1-1.013-.425,1.339,1.339,0,0,1-.487-1.05,1.524,1.524,0,0,1,.375-1l7.9-9.675a1.423,1.423,0,0,1,.525-.437,1.6,1.6,0,0,1,.725-.163,1.4,1.4,0,0,1,1.063.438,1.524,1.524,0,0,1,.412,1.087v14.45a1.476,1.476,0,0,1-.437,1.087A1.476,1.476,0,0,1,11.725,0Zm11.95.25A5.812,5.812,0,0,1,20.038-.888a7.02,7.02,0,0,1-2.263-3.175A13.131,13.131,0,0,1,17-8.75a13.106,13.106,0,0,1,.775-4.7,7.025,7.025,0,0,1,2.263-3.162,5.812,5.812,0,0,1,3.637-1.138,5.812,5.812,0,0,1,3.638,1.138,7.025,7.025,0,0,1,2.263,3.162,13.106,13.106,0,0,1,.775,4.7,13.131,13.131,0,0,1-.775,4.688A7.02,7.02,0,0,1,27.313-.888,5.812,5.812,0,0,1,23.675.25Zm0-3a2.673,2.673,0,0,0,1.813-.662,4.309,4.309,0,0,0,1.188-2A11.175,11.175,0,0,0,27.1-8.75a11.15,11.15,0,0,0-.425-3.35,4.306,4.306,0,0,0-1.187-1.987,2.673,2.673,0,0,0-1.812-.662,2.686,2.686,0,0,0-1.8.662,4.25,4.25,0,0,0-1.2,1.987,11.15,11.15,0,0,0-.425,3.35,11.175,11.175,0,0,0,.425,3.338,4.253,4.253,0,0,0,1.2,2A2.686,2.686,0,0,0,23.675-2.75ZM41.375,0a1.406,1.406,0,0,1-1.05-.437A1.5,1.5,0,0,1,39.9-1.525v-11.75l.525.125L35.6-7.175,35.475-7.5H43.95a1.357,1.357,0,0,1,1,.4,1.357,1.357,0,0,1,.4,1,1.286,1.286,0,0,1-.4.962,1.38,1.38,0,0,1-1,.388H33.4a1.529,1.529,0,0,1-1.013-.425,1.339,1.339,0,0,1-.488-1.05,1.524,1.524,0,0,1,.375-1l7.9-9.675a1.423,1.423,0,0,1,.525-.437,1.6,1.6,0,0,1,.725-.163,1.4,1.4,0,0,1,1.063.438,1.524,1.524,0,0,1,.412,1.087v14.45a1.476,1.476,0,0,1-.437,1.087A1.476,1.476,0,0,1,41.375,0Z" transform="translate(955.88 409.428)"/></g></svg>