<svg xmlns="http://www.w3.org/2000/svg" width="42" height="42" viewBox="0 0 42 42"><defs><style>.a{fill:#ffc400;}.b{fill:#fff;}</style></defs><circle class="a" cx="21" cy="21" r="21"/><path class="b" d="M117.831,1725.013c.086-.356.158-.672.238-.986a1.226,1.226,0,0,1,1.47-.981,1.26,1.26,0,0,1,.886,1.578c-.071.316-.151.63-.232.966l1.767.448c.072-.3.14-.591.213-.882a1.239,1.239,0,0,1,1.5-1.06,1.272,1.272,0,0,1,.851,1.676c-.077.325-.157.651-.234.971a3.9,3.9,0,0,1,.958,5.964,3.855,3.855,0,0,1,.315,4.786,3.608,3.608,0,0,1-4.235,1.536c-.072.3-.144.6-.218.9a1.236,1.236,0,0,1-1.509,1.045,1.27,1.27,0,0,1-.852-1.626c.069-.3.142-.591.219-.91l-1.767-.448c-.074.309-.146.622-.226.933a1.228,1.228,0,0,1-1.509,1,1.26,1.26,0,0,1-.845-1.6c.07-.305.146-.609.23-.954-.308-.078-.6-.15-.888-.225a1.259,1.259,0,0,1-1-1.531,1.229,1.229,0,0,1,1.584-.917c.284.068.567.143.872.22l1.8-7.463c-.3-.077-.605-.15-.905-.23a1.261,1.261,0,0,1-.952-1.562,1.225,1.225,0,0,1,1.553-.882C117.21,1724.854,117.5,1724.93,117.831,1725.013Zm1.787,3.056-1.8,7.458c1.444.366,2.866.729,4.289,1.085a1.3,1.3,0,0,0,1.65-.934,1.333,1.333,0,0,0-1.041-1.636c-.578-.151-1.159-.291-1.737-.442a1.26,1.26,0,0,1-.969-1.552,1.231,1.231,0,0,1,1.573-.894,6.431,6.431,0,0,0,.948.195,1.2,1.2,0,0,0,1.254-1,1.236,1.236,0,0,0-.824-1.427C121.861,1728.62,120.748,1728.355,119.618,1728.069Z" transform="translate(-98.892 -1710.942)"/></svg>