<svg xmlns="http://www.w3.org/2000/svg" width="16.395" height="16.395" viewBox="0 0 16.395 16.395"><defs><style>.a{fill:none;}.b{fill:#a6a6c3;}</style></defs><path class="a" d="M0,0H16.395V16.395H0Z"/><path class="b" d="M11.88,8.514H9.831a.685.685,0,0,0-.683.683v2.049a.685.685,0,0,0,.683.683H11.88a.685.685,0,0,0,.683-.683V9.2A.685.685,0,0,0,11.88,8.514Zm0-6.831v.683H6.416V1.683a.683.683,0,1,0-1.366,0v.683H4.366A1.36,1.36,0,0,0,3.007,3.732L3,13.3a1.366,1.366,0,0,0,1.366,1.366H13.93A1.37,1.37,0,0,0,15.3,13.3V3.732A1.37,1.37,0,0,0,13.93,2.366h-.683V1.683a.683.683,0,0,0-1.366,0ZM13.247,13.3h-8.2a.685.685,0,0,1-.683-.683V5.782H13.93v6.831A.685.685,0,0,1,13.247,13.3Z" transform="translate(-0.951 -0.317)"/></svg>