<svg xmlns="http://www.w3.org/2000/svg" width="19.39" height="19.39" viewBox="0 0 19.39 19.39"><defs><style>.a,.c{fill:none;}.b{fill:#2590f7;stroke-width:0.3px;}.b,.c{stroke:#2590f7;}.c{stroke-width:2px;}.d{stroke:none;}</style></defs><g transform="translate(-15.199 -15.172)"><g transform="translate(15.199 15.172)"><path class="a" d="M0,0H19.39V19.39H0Z"/><g transform="translate(0.601 0.599)"><path class="b" d="M8.351,0H.619C-.2,0-.213,1.828.619,1.828H8.027a3.213,3.213,0,0,1,3.127,2.73l.027,7.781c0,.872,1.79.823,1.79,0V4.558C13.054,2.2,10.616.158,8.489,0c.189,0,.238.016-.313,0" transform="translate(0 12.973) rotate(-90)"/><g class="c" transform="translate(3.391 3.451)"><rect class="d" width="14.765" height="14.765" rx="4"/><rect class="a" x="1" y="1" width="12.765" height="12.765" rx="3"/></g></g></g></g></svg>