<svg xmlns="http://www.w3.org/2000/svg" width="42" height="42" viewBox="0 0 42 42"><defs><style>.a{fill:#0a8fff;}.b{fill:#fff;}</style></defs><g transform="translate(0 0)"><circle class="a" cx="21" cy="21" r="21"/></g><g transform="translate(12.633 14.416)"><path class="b" d="M-11.815,112.841c-.211.886-.409,1.777-.637,2.657-.373,1.439-.748,2.878-1.155,4.3a5.039,5.039,0,0,1-3.148,3.538,3.25,3.25,0,0,1-1.14.152c-4.1.01-6.873.007-10.971.007-.054,0-.108-.008-.182-.013.146-.553.287-1.086.428-1.62.124-.467.258-.931.369-1.4.047-.2.12-.265.3-.264,3.738.007,6.153,0,9.89.012.215,0,.294-.074.354-.3.524-2.009,1.059-4.015,1.591-6.021.021-.081.039-.164.066-.273H-26.323c.017-.087.025-.149.041-.208.257-.969.518-1.936.772-2.906.036-.137.082-.193.215-.193,4.259,0,7.2,0,11.455.006a2.036,2.036,0,0,1,1.99,1.827.8.8,0,0,0,.035.1Z" transform="translate(29.048 -110.304)"/><path class="b" d="M-32.831,227.809c-.269.974-.532,1.921-.789,2.87-.035.128-.1.138-.2.138-.562,0-1.125,0-1.687,0h-5.349a1.356,1.356,0,0,1,.022-.155c.248-.9.5-1.8.742-2.7.035-.129.088-.165.2-.165q3.462,0,6.924,0C-32.928,227.8-32.89,227.8-32.831,227.809Z" transform="translate(41.26 -222.716)"/></g></svg>