<svg xmlns="http://www.w3.org/2000/svg" width="17.351" height="17.351" viewBox="0 0 17.351 17.351"><defs><style>.a{fill:none;}.b{fill:#79798e;}</style></defs><path class="a" d="M0,0H17.351V17.351H0Z"/><path class="b" d="M14.567,2.446h-.723V1.723a.723.723,0,1,0-1.446,0v.723H6.615V1.723a.723.723,0,1,0-1.446,0v.723H4.446A1.439,1.439,0,0,0,3.007,3.892L3,14.013a1.445,1.445,0,0,0,1.446,1.446H14.567a1.45,1.45,0,0,0,1.446-1.446V3.892A1.45,1.45,0,0,0,14.567,2.446Zm-.723,11.567H5.169a.725.725,0,0,1-.723-.723V6.061H14.567V13.29A.725.725,0,0,1,13.844,14.013ZM6.615,7.506H8.784a.725.725,0,0,1,.723.723V10.4a.725.725,0,0,1-.723.723H6.615a.725.725,0,0,1-.723-.723V8.229A.725.725,0,0,1,6.615,7.506Z" transform="translate(-0.831 -0.277)"/></svg>