<svg xmlns="http://www.w3.org/2000/svg" width="14.489" height="15.067" viewBox="0 0 14.489 15.067"><defs><style>.a{fill:#79798e;}</style></defs><path class="a" d="M14.982,2H3.507A1.511,1.511,0,0,0,2,3.507v9.04a1.511,1.511,0,0,0,1.507,1.507H7.738V15.56H6.984a.753.753,0,1,0,0,1.507H11.5a.753.753,0,1,0,0-1.507h-.753V14.053h4.231a1.511,1.511,0,0,0,1.507-1.507V3.507A1.511,1.511,0,0,0,14.982,2Zm-.753,10.547H4.26a.756.756,0,0,1-.753-.753V4.26a.756.756,0,0,1,.753-.753h9.968a.756.756,0,0,1,.753.753v7.533A.756.756,0,0,1,14.229,12.547Z" transform="translate(-2 -2)"/></svg>