<svg xmlns="http://www.w3.org/2000/svg" width="110.412" height="110.126" viewBox="0 0 110.412 110.126"><defs><style>.a{fill:#dbdbe8;}.b{fill:none;stroke:#dbdbe8;stroke-linecap:round;stroke-width:6px;stroke-dasharray:0.001 12;fill-rule:evenodd;}</style></defs><g transform="translate(-974 -198.986)"><g transform="translate(-160.684 -243.056)"><g transform="translate(1165.615 442.042)"><path class="a" d="M537.962-501.737c-4.326,1.163-6.086,4.624-4.088,8.025,2.536,4.326,9.277,7.845,16.646,8.71l1.671.209v1.522a4.451,4.451,0,0,0,4.564,4.8c3.193,0,5.16-2.715,4.386-6-.238-.925-.209-.954,1.044-1.282,7.219-1.79,13.364-7.011,13.364-11.306,0-1.879-.657-2.834-2.536-3.759a6.506,6.506,0,0,0-5.936,0c-2.655,1.282-5.7,5.459-7.815,10.71l-.986,2.387-1.641.06-1.671.06-.955-1.7a41.243,41.243,0,0,0-6.622-8.92C544.019-501.41,540.945-502.573,537.962-501.737Z" transform="translate(-496.069 501.999)"/><path class="b" d="M18.577,29.659c.13-11.121-1.241-21.2-3.192-24.711C14.34,3.058,12.792,1.969,10.779,0L2.755,2.929c-4.89-5.176-5,15.292,8.959,14.833S44.7,18.421,54.841,7.117" transform="translate(0 25.323) rotate(-10)"/></g></g><g transform="translate(974 260.094)"><g transform="translate(0)"><path class="a" d="M27.023,80.627A16.358,16.358,0,0,1,43.362,64.288H55.616a8.178,8.178,0,0,0-8.17-8.17H13.17A8.178,8.178,0,0,0,5,64.288V96.966a8.178,8.178,0,0,0,8.17,8.17H47.447a8.178,8.178,0,0,0,8.17-8.17H43.362A16.358,16.358,0,0,1,27.023,80.627Z" transform="translate(-5 -56.118)"/><path class="a" d="M264.784,140.294a12.254,12.254,0,1,0,0,24.509h16.339V140.294Zm0,16.339a4.085,4.085,0,1,1,4.085-4.085A4.085,4.085,0,0,1,264.784,156.633Z" transform="translate(-226.422 -128.04)"/></g></g></g></svg>