<svg xmlns="http://www.w3.org/2000/svg" width="96.094" height="96.914" viewBox="0 0 96.094 96.914"><defs><style>.a{fill:#fff4e5;}.b{fill:#ff7f00;}</style></defs><g transform="translate(-806 -203)"><ellipse class="a" cx="48.047" cy="48.457" rx="48.047" ry="48.457" transform="translate(806 203)"/><g transform="translate(897.541 327.541)"><path class="b" d="M43,44.229H14.6A4.594,4.594,0,0,1,10,39.653a4.385,4.385,0,0,1,.731-2.46l14.157-23a4.589,4.589,0,0,1,7.843.032L46.914,37.26a4.315,4.315,0,0,1,.688,2.393A4.594,4.594,0,0,1,43,44.229Zm-14.2-28.2a.537.537,0,0,0-.462.239L14.029,39.653a.567.567,0,0,0,.569.548H43a.567.567,0,0,0,.569-.548.391.391,0,0,0-.046-.209L29.279,16.3a.536.536,0,0,0-.478-.274Z" transform="translate(-71.142 -104.771)"/><g transform="translate(0 -1)"><path class="b" d="M18.264,25.4a2.015,2.015,0,0,1-2.014-2.014V19.014a2.014,2.014,0,0,1,4.029,0v4.372A2.015,2.015,0,0,1,18.264,25.4Z" transform="translate(-60.606 -97.027)"/><circle class="b" cx="2.014" cy="2.014" r="2.014" transform="translate(-44.356 -69.941)"/></g></g></g></svg>