<svg xmlns="http://www.w3.org/2000/svg" width="16.574" height="19.28" viewBox="0 0 16.574 19.28"><defs><style>.a{fill:#79798e;}</style></defs><g transform="translate(0.167 2)"><path class="a" d="M10.088,7.264h3.406a8.465,8.465,0,0,0,2.315-.235,2.048,2.048,0,0,0,0-2.894L12.176-.5A1.468,1.468,0,0,0,11.151-1c-.529,0-1.063.423-1.063,1.367v3.4H-.166V7.264H10.088Z" transform="translate(-0.001 -1)"/><path class="a" d="M6.153,0H2.747A8.465,8.465,0,0,0,.432.235a2.048,2.048,0,0,0,0,2.894L4.065,7.762a1.468,1.468,0,0,0,1.024.5c.529,0,1.063-.423,1.063-1.367v-3.4H16.345V0H6.153Z" transform="translate(-0.001 9.017)"/></g></svg>