<svg xmlns="http://www.w3.org/2000/svg" width="24.887" height="24.887" viewBox="0 0 24.887 24.887"><defs><style>.a{fill:#79798e;}</style></defs><path class="a" d="M12.443,0A12.443,12.443,0,1,0,24.887,12.443,12.457,12.457,0,0,0,12.443,0Zm0,19.583a1.037,1.037,0,1,1,1.037-1.037A1.037,1.037,0,0,1,12.443,19.583Zm1.641-5.437c-.367.169-.6.943-.6.943v.154a1.037,1.037,0,0,1-2.074,0v-.154a3.124,3.124,0,0,1,1.809-2.827,3.389,3.389,0,0,0,1.82-2.411,2.592,2.592,0,0,0-5.185,0,1.037,1.037,0,1,1-2.074,0,4.666,4.666,0,0,1,9.333,0,5.4,5.4,0,0,1-3.025,4.3Z"/></svg>