<svg xmlns="http://www.w3.org/2000/svg" width="13.183" height="15.504" viewBox="0 0 13.183 15.504"><defs><style>.a{fill:#79798e;}</style></defs><path class="a" d="M15.937,3.837H13.374V1.747A.747.747,0,0,0,12.627,1H7.556a.747.747,0,0,0-.747.747v2.09H4.247a.747.747,0,1,0,0,1.493h.479V15.757a.747.747,0,0,0,.747.747h9.239a.747.747,0,0,0,.747-.747V5.33h.479a.747.747,0,0,0,0-1.493ZM8.3,2.493H11.88V3.837H8.3Zm5.662,12.518H6.219V5.33h7.746ZM9.3,7.42v5.5a.747.747,0,1,1-1.493,0V7.42a.747.747,0,1,1,1.493,0Zm3.08,0v5.5a.747.747,0,1,1-1.493,0V7.42a.747.747,0,1,1,1.493,0Zm0,0" transform="translate(-3.5 -1)"/></svg>