<svg xmlns="http://www.w3.org/2000/svg" width="211.498" height="90.71" viewBox="0 0 211.498 90.71"><defs><style>.a{fill:#2c8df7;}</style></defs><g transform="translate(0 -74.095)"><path class="a" d="M14.926,323.218H6.077a6.076,6.076,0,1,1,0-12.152h8.849a6.076,6.076,0,0,1,0,12.152Zm0,0" transform="translate(0 -182.57)"/><path class="a" d="M149.661,381.689H134.589a6.077,6.077,0,0,1,0-12.154h15.073a6.077,6.077,0,0,1,0,12.154Zm0,0" transform="translate(-75.426 -216.887)"/><path class="a" d="M211.347,273.847a18.233,18.233,0,0,1-21.672,0L141.3,238.086v30.147H88.249a6.076,6.076,0,1,0,0,12.152H141.3v18.08a6.077,6.077,0,0,0,6.077,6.077H253.649a6.077,6.077,0,0,0,6.077-6.077V238.086Zm0,0" transform="translate(-48.228 -139.737)"/><path class="a" d="M284.517,230.8a6.07,6.07,0,0,1-3.613-1.191l-53.138-39.278a6.076,6.076,0,0,1,3.611-10.963H337.654a6.076,6.076,0,0,1,3.611,10.963l-53.138,39.278A6.065,6.065,0,0,1,284.517,230.8Zm0,0" transform="translate(-132.233 -105.276)"/></g></svg>