<svg xmlns="http://www.w3.org/2000/svg" width="20.554" height="23.731" viewBox="0 0 20.554 23.731"><defs><style>.a,.b{fill:#79798e;}.a{stroke:#79798e;stroke-width:0.3px;}</style></defs><g transform="translate(-1480.85 -50.498)"><path class="a" d="M19.251,17.847h-1.3V8.874c0-3.722-2.7-6.339-6.818-6.72V1A1,1,0,1,0,9.124,1V2.154c-4.115.381-6.818,3-6.818,6.72v8.973H1a1,1,0,0,0,0,2.005H19.251a1,1,0,0,0,0-2.005Z" transform="translate(1481 50.648)"/><path class="b" d="M5.114,4.416A2.508,2.508,0,0,1,2.557,6.873,2.508,2.508,0,0,1,0,4.416H5.114Z" transform="translate(1488.462 67.357)"/></g></svg>