<svg xmlns="http://www.w3.org/2000/svg" width="18.486" height="17.107" viewBox="0 0 18.486 17.107"><defs><style>.a{fill:#79798e;}</style></defs><g transform="translate(-14.95 -5)"><g transform="translate(14.95 5)"><path class="a" d="M30.058,9.129h-.745V7.47C29.313,5.108,27.39,5,25.027,5H23.293c-2.362,0-4.286.108-4.286,2.47V9.129h-.679c-2.362,0-3.378,1.924-3.378,4.286v2.373c0,2.362.768,4.286,3.13,4.286h1.737v-.106a2.145,2.145,0,0,0,2.14,2.14h4.3a2.145,2.145,0,0,0,2.14-2.14v.106h1.659c2.362,0,3.378-1.924,3.378-4.286V13.415C33.436,11.052,32.421,9.129,30.058,9.129ZM20.624,7.47c0-1.467,1.2-1.134,2.669-1.134h1.728c1.467,0,2.657-.332,2.657,1.134V9.129H20.624Zm6.152,12.509a.521.521,0,0,1-.517.517h-4.3a.521.521,0,0,1-.517-.517V16.557h5.336Zm5.037-4.186c0,1.467-.288,2.663-1.755,2.663H28.405v-1.9h.07a.811.811,0,1,0,0-1.623H19.627a.811.811,0,1,0,0,1.623h.2v1.9h-1.5c-1.467,0-1.755-1.2-1.755-2.663V13.421c0-1.467.288-2.663,1.755-2.663H30.058c1.467,0,1.755,1.2,1.755,2.663Z" transform="translate(-14.95 -5)"/><path class="a" d="M360.509,151.9h-1.647a.811.811,0,1,0,0,1.623h1.647a.811.811,0,1,0,0-1.623Z" transform="translate(-346.326 -144.585)"/></g></g></svg>