<?xml version="1.0" encoding="utf-8"?>
<!-- Svg Vector Icons : http://www.onlinewebfonts.com/icon -->
<!DOCTYPE svg PUBLIC "-//W3C//DTD SVG 1.1//EN" "http://www.w3.org/Graphics/SVG/1.1/DTD/svg11.dtd">
<svg version="1.1" xmlns="http://www.w3.org/2000/svg" xmlns:xlink="http://www.w3.org/1999/xlink" x="0px" y="0px" viewBox="0 0 1000 1000" enable-background="new 0 0 1000 1000" xml:space="preserve">
<metadata> Svg Vector Icons : http://www.onlinewebfonts.com/icon </metadata>
<g><g><path d="M243.3,523.4h46.7v46.7h46.7v46.7H103.4v-46.7h46.7v-93.4h93.4L243.3,523.4L243.3,523.4z M850.1,943.4h46.6v-46.7h-46.6V943.4z M290,523.4h46.7v-46.7H290V523.4z M943.3,943.4H990v-46.7h-46.7V943.4z M383.4,990h93.3v-46.7h-93.3V990z M803.3,990v-46.7h-46.7V990H803.3z M616.7,990h46.7v-93.3h-46.7V990z M243.3,383.4v46.7h140v-46.7H243.3z M196.7,430v-46.7h-93.4v93.3H150V430H196.7z M336.7,336.7H10.1V10.1h326.6V336.7z M290,56.7H56.7V290H290V56.7z M103.4,896.7h140v-140h-140V896.7z M570,850v46.7h46.8V850H570z M243.3,103.4h-140v139.9h140V103.4z M989.9,10.1v326.6H663.3V10.1H989.9z M943.3,56.7H710V290h233.3V56.7z M10,663.3h326.7v326.6H10V663.3z M56.7,943.4h233.4V710H56.7V943.4z M56.7,383.4H10v233.3h46.7V383.4z M663.3,616.7v46.6H710v-46.6H663.3z M523.3,803.4v-46.7h-46.7v46.7h-93.3v93.4h93.3v46.7h46.7v-93.4H570v-46.7H523.3L523.3,803.4z M383.4,196.7h93.3V150h-93.3V196.7z M756.7,570.1h93.4v46.7h46.6v-140h-46.6v-93.4h-46.8v140H663.4v46.7h46.7v46.7h46.7v-46.7H756.7L756.7,570.1z M803.3,710h-46.7v-46.7h-46.7v93.4H570v46.7h93.4v93.4h46.7v46.7h46.7v-93.4h186.6v-46.7h-140L803.3,710L803.3,710z M803.3,710h46.8v-93.3h-46.8V710z M430,710v-46.7h46.6v-46.6h46.7V570H570v-93.4h140v-93.4h-46.7v46.7h-46.7V243.3h-46.7v-93.4h46.7V10h-46.7v93.4h-46.7V10h-140v93.4H430V56.7h46.6V150h46.7v140h46.7v46.7h-46.7V430h-46.7v-93.4H430V290h-46.7v93.4H430v46.7h-46.7v140H430v-93.4h46.6v93.4H430v46.7h-46.7v139.9h93.3V710H430z M943.3,756.7V710H850v46.7H943.3z M896.6,103.4H756.7v139.9h139.9V103.4z M523.3,710h93.4v-46.7H570v-46.6h-46.7L523.3,710L523.3,710z M616.7,616.7V570H570v46.7H616.7z M896.6,430H990v-46.7h-93.4V430z M943.3,803.4H990v-46.7h-46.7V803.4z M943.3,523.4H990v-46.7h-46.7V523.4z M523.3,290h-46.7v46.7h46.7V290z"/></g><g></g><g></g><g></g><g></g><g></g><g></g><g></g><g></g><g></g><g></g><g></g><g></g><g></g><g></g><g></g></g>
</svg>