<svg xmlns="http://www.w3.org/2000/svg" width="23" height="23" viewBox="0 0 23 23"><defs><style>.a{fill:#79798e;}</style></defs><g transform="translate(-0.574 7)"><path class="a" d="M11.5,23a1.919,1.919,0,0,1-1.916-1.917V18.912a7.615,7.615,0,0,1-1.97-.817L6.079,19.63a1.917,1.917,0,1,1-2.711-2.71L4.9,15.385a7.638,7.638,0,0,1-.818-1.97H1.917a1.916,1.916,0,1,1,0-3.833h2.17A7.652,7.652,0,0,1,4.9,7.612L3.37,6.078A1.917,1.917,0,1,1,6.08,3.367L7.615,4.9a7.571,7.571,0,0,1,1.968-.817V1.917a1.917,1.917,0,0,1,3.834,0v2.17a7.625,7.625,0,0,1,1.969.817l1.535-1.535a1.917,1.917,0,0,1,2.711,2.71L18.1,7.613a7.547,7.547,0,0,1,.818,1.97h2.169a1.917,1.917,0,0,1,0,3.834H18.912a7.606,7.606,0,0,1-.817,1.97l1.535,1.535a1.917,1.917,0,0,1-2.711,2.71L15.385,18.1a7.591,7.591,0,0,1-1.97.818v2.169A1.919,1.919,0,0,1,11.5,23Zm0-16.292A4.792,4.792,0,1,0,16.292,11.5,4.8,4.8,0,0,0,11.5,6.708Z" transform="translate(0.574 -7)"/></g></svg>