<svg xmlns="http://www.w3.org/2000/svg" width="17.408" height="16.715" viewBox="0 0 17.408 16.715"><defs><style>.a{fill:#79798e;}</style></defs><g transform="translate(-3.825 -4.518)"><path class="a" d="M19.32,5H6.088A2.094,2.094,0,0,0,4,7.088V19.627a2.094,2.094,0,0,0,2.088,2.088H19.32a2.094,2.094,0,0,0,2.088-2.088V7.088A2.094,2.094,0,0,0,19.32,5ZM8.528,17.539A1.047,1.047,0,0,1,7.484,16.5V12.66a1.044,1.044,0,1,1,2.088,0V16.5A1.047,1.047,0,0,1,8.528,17.539Zm4.176,0A1.047,1.047,0,0,1,11.66,16.5V9.528a1.044,1.044,0,1,1,2.088,0V16.5A1.047,1.047,0,0,1,12.7,17.539Zm4.176,0A1.047,1.047,0,0,1,15.836,16.5V14.38a1.044,1.044,0,1,1,2.088,0V16.5A1.047,1.047,0,0,1,16.88,17.539Z" transform="translate(-0.175 -0.482)"/></g></svg>