<svg xmlns="http://www.w3.org/2000/svg" width="24.829" height="24.829" viewBox="0 0 24.829 24.829"><defs><style>.a{fill:none;}.b{fill:#2590f7;}</style></defs><path class="a" d="M0,0H24.829V24.829H0Z"/><path class="b" d="M8.138,11.909h6.05v2.069H8.138Zm0-3.511H16.1v2.069H8.138ZM18.17,3.069H15.037a3.091,3.091,0,0,0-5.835,0H6.069a1.812,1.812,0,0,0-.414.041,2.09,2.09,0,0,0-1.49,1.231,1.993,1.993,0,0,0-.166.8v12.1a2.122,2.122,0,0,0,.166.807,2.193,2.193,0,0,0,.445.662,2.077,2.077,0,0,0,1.045.569,2.685,2.685,0,0,0,.414.031h12.1a2.075,2.075,0,0,0,2.069-2.069V5.138A2.075,2.075,0,0,0,18.17,3.069Zm-6.05-.259a.776.776,0,1,1-.776.776A.782.782,0,0,1,12.119,2.81Zm6.05,14.428H6.069V5.138h12.1Z" transform="translate(0.295 0.035)"/></svg>