<svg xmlns="http://www.w3.org/2000/svg" width="42" height="42.358" viewBox="0 0 42 42.358"><defs><style>.a{fill:#ff8f2f;}.b{fill:#fff;}</style></defs><g transform="translate(-481.645 -450)"><g transform="translate(400.645 -669)"><g transform="translate(81 1119)"><g transform="translate(0 0)"><ellipse class="a" cx="21" cy="21.179" rx="21" ry="21.179"/></g></g><path class="b" d="M273.546,123.92h7.12v3.418h-4.59v2.821h-2.842v-2.811h-4.61c0-.087-.01-.153-.01-.218,0-.725-.005-1.45,0-2.175a.593.593,0,0,1,.115-.335c2.413-3.072,4.619-6.3,6.94-9.435.021-.029.039-.06.078-.119h-7.127v-3.41h4.594v-2.833h2.847v2.821h4.6c0,.076.009.137.009.2,0,.744,0,1.488,0,2.231a.441.441,0,0,1-.08.255c-2.093,2.632-3.985,5.413-5.985,8.113-.32.432-.632.869-.947,1.3C273.629,123.792,273.6,123.843,273.546,123.92Z" transform="translate(-172.543 1020.768)"/></g></g></svg>